<svg width="16px" height="16px" viewBox="0 0 16 16">>
<path d="M14.7,1.8H1.3C0.6,1.8,0,2.4,0,3.1v9.8c0,0.7,0.6,1.3,1.3,1.3h13.3c0.7,0,1.3-0.6,1.3-1.3V3.1C16,2.4,15.4,1.8,14.7,1.8z
	 M4.9,4.4c1,0,1.8,0.8,1.8,1.8S5.9,8,4.9,8S3.1,7.2,3.1,6.2S3.9,4.4,4.9,4.4z M8,11c0,0.3-0.3,0.5-0.6,0.5h-5
	c-0.3,0-0.6-0.2-0.6-0.5v-0.5c0-0.9,0.8-1.6,1.9-1.6h0.1C4.1,9,4.5,9.1,4.9,9.1S5.7,9,6,8.9h0.1c1,0,1.9,0.7,1.9,1.6V11z M14.2,9.6
	c0,0.1-0.1,0.2-0.2,0.2h-4c-0.1,0-0.2-0.1-0.2-0.2V9.1C9.8,9,9.9,8.9,10,8.9h4c0.1,0,0.2,0.1,0.2,0.2V9.6z M14.2,7.8
	C14.2,7.9,14.1,8,14,8h-4C9.9,8,9.8,7.9,9.8,7.8V7.3c0-0.1,0.1-0.2,0.2-0.2h4c0.1,0,0.2,0.1,0.2,0.2V7.8z M14.2,6
	c0,0.1-0.1,0.2-0.2,0.2h-4C9.9,6.2,9.8,6.1,9.8,6V5.6c0-0.1,0.1-0.2,0.2-0.2h4c0.1,0,0.2,0.1,0.2,0.2V6z"/>
</svg>
