<svg width="16px" height="16px" viewBox="0 0 16 16">
<path d="M15,11.2V0.8C15,0.3,14.7,0,14.2,0H4C2.3,0,1,1.3,1,3v10c0,1.7,1.3,3,3,3h10.2c0.4,0,0.8-0.3,0.8-0.8v-0.5
	c0-0.2-0.1-0.4-0.3-0.6c-0.1-0.5-0.1-1.9,0-2.3C14.9,11.7,15,11.5,15,11.2L15,11.2z M5,4.2C5,4.1,5.1,4,5.2,4h6.6
	C11.9,4,12,4.1,12,4.2v0.6C12,4.9,11.9,5,11.8,5H5.2C5.1,5,5,4.9,5,4.8V4.2z M5,6.2C5,6.1,5.1,6,5.2,6h6.6C11.9,6,12,6.1,12,6.2v0.6
	C12,6.9,11.9,7,11.8,7H5.2C5.1,7,5,6.9,5,6.8V6.2z M12.9,14H4c-0.6,0-1-0.4-1-1c0-0.6,0.5-1,1-1h8.9C12.9,12.5,12.9,13.5,12.9,14z"
	/>
</svg>
