<svg width="16px" height="16px" viewBox="0 0 16 16">
<path d="M10.6,8c-0.4,0-0.8-0.2-1-0.6L8,4.8L6.4,7.4C6.2,7.8,5.8,8,5.4,8C5.2,8,5.1,8,5,8L1.6,7v4.4c0,0.4,0.2,0.7,0.6,0.8l5.4,1.4
	c0.3,0.1,0.5,0.1,0.8,0l5.4-1.4c0.4-0.1,0.6-0.4,0.6-0.8V7L11,8C10.9,8,10.8,8,10.6,8z M16,5.2l-1.3-2.6c-0.1-0.2-0.2-0.2-0.4-0.2
	L8,3.2L10.3,7c0.1,0.2,0.3,0.2,0.5,0.2l4.9-1.4C16,5.7,16.1,5.4,16,5.2L16,5.2z M1.3,2.6L0,5.2c-0.1,0.2,0,0.5,0.3,0.6l4.9,1.4
	c0.2,0,0.4,0,0.5-0.2L8,3.2L1.7,2.4C1.6,2.4,1.4,2.5,1.3,2.6z"/>
</svg>
