<svg width="16px" height="16px" viewBox="0 0 16 16">
<path d="M1,14.5C1,15.3,1.7,16,2.5,16h11c0.8,0,1.5-0.7,1.5-1.5V6H1V14.5z M11,8.4C11,8.2,11.2,8,11.4,8h1.2C12.8,8,13,8.2,13,8.4
	v1.2c0,0.2-0.2,0.4-0.4,0.4h-1.2C11.2,10,11,9.8,11,9.6V8.4z M11,12.4c0-0.2,0.2-0.4,0.4-0.4h1.2c0.2,0,0.4,0.2,0.4,0.4v1.2
	c0,0.2-0.2,0.4-0.4,0.4h-1.2c-0.2,0-0.4-0.2-0.4-0.4V12.4z M7,8.4C7,8.2,7.2,8,7.4,8h1.2C8.8,8,9,8.2,9,8.4v1.2C9,9.8,8.8,10,8.6,10
	H7.4C7.2,10,7,9.8,7,9.6V8.4z M7,12.4C7,12.2,7.2,12,7.4,12h1.2C8.8,12,9,12.2,9,12.4v1.2C9,13.8,8.8,14,8.6,14H7.4
	C7.2,14,7,13.8,7,13.6V12.4z M3,8.4C3,8.2,3.2,8,3.4,8h1.2C4.8,8,5,8.2,5,8.4v1.2C5,9.8,4.8,10,4.6,10H3.4C3.2,10,3,9.8,3,9.6V8.4z
	 M3,12.4C3,12.2,3.2,12,3.4,12h1.2C4.8,12,5,12.2,5,12.4v1.2C5,13.8,4.8,14,4.6,14H3.4C3.2,14,3,13.8,3,13.6V12.4z M13.5,2H12V0.5
	C12,0.2,11.8,0,11.5,0h-1C10.2,0,10,0.2,10,0.5V2H6V0.5C6,0.2,5.8,0,5.5,0h-1C4.2,0,4,0.2,4,0.5V2H2.5C1.7,2,1,2.7,1,3.5V5h14V3.5
	C15,2.7,14.3,2,13.5,2z"/>
</svg>