<svg width="16px" height="16px" viewBox="0 0 16 16">
<path d="M7,14.4l-1.5-0.4c-0.2,0-0.2-0.2-0.2-0.4L8.7,1.8c0-0.2,0.2-0.2,0.4-0.2l1.5,0.4c0.2,0,0.2,0.2,0.2,0.4L7.3,14.2
	C7.3,14.3,7.1,14.4,7,14.4z M4.1,11.6l1.1-1.2c0.1-0.1,0.1-0.3,0-0.4L2.9,8l2.3-2c0.1-0.1,0.1-0.3,0-0.4L4.1,4.4
	C4,4.3,3.8,4.3,3.7,4.4L0.1,7.8C0,7.9,0,8.1,0.1,8.2l3.6,3.4C3.8,11.7,4,11.7,4.1,11.6L4.1,11.6z M12.3,11.6l3.6-3.4
	c0.1-0.1,0.1-0.3,0-0.4l-3.6-3.4c-0.1-0.1-0.3-0.1-0.4,0l-1.1,1.2c-0.1,0.1-0.1,0.3,0,0.4l2.3,2l-2.3,2c-0.1,0.1-0.1,0.3,0,0.4
	l1.1,1.2C12,11.7,12.2,11.7,12.3,11.6L12.3,11.6z"/>
</svg>
