<svg width="16px" height="16px" viewBox="0 0 16 16">
<path d="M11.2,3.2l2.5,2.5c0.1,0.1,0.1,0.3,0,0.4l-6.1,6.1L5,12.4c-0.3,0-0.6-0.3-0.6-0.6l0.3-2.6l6.1-6.1
	C10.9,3.1,11.1,3.1,11.2,3.2L11.2,3.2z M15.7,2.6l-1.4-1.4c-0.4-0.4-1.1-0.4-1.5,0l-1,1c-0.1,0.1-0.1,0.3,0,0.4l2.5,2.5
	c0.1,0.1,0.3,0.1,0.4,0l1-1C16.1,3.7,16.1,3,15.7,2.6z M10.7,10.5v2.8H1.8V4.4h6.4c0.1,0,0.2,0,0.2-0.1l1.1-1.1
	C9.7,3,9.6,2.7,9.3,2.7H1.3C0.6,2.7,0,3.3,0,4v9.8c0,0.7,0.6,1.3,1.3,1.3h9.8c0.7,0,1.3-0.6,1.3-1.3V9.4c0-0.3-0.4-0.4-0.6-0.2
	l-1.1,1.1C10.7,10.3,10.7,10.4,10.7,10.5z"/>
</svg>
