<svg width="16px" height="16px" viewBox="0 0 16 16">
<path d="M14,3.8V4h-4V0h0.2c0.2,0,0.4,0.1,0.5,0.2l3.1,3.1C13.9,3.4,14,3.6,14,3.8z M9.8,5C9.3,5,9,4.7,9,4.2V0H2.8
	C2.3,0,2,0.3,2,0.8v14.5C2,15.7,2.3,16,2.8,16h10.5c0.4,0,0.8-0.3,0.8-0.8V5H9.8z M5.9,12.5c-0.1,0.1-0.2,0.1-0.2,0c0,0,0,0,0,0
	l-2-1.9c-0.1-0.1-0.1-0.2,0-0.2c0,0,0,0,0,0l2-1.9c0.1-0.1,0.2-0.1,0.2,0c0,0,0,0,0,0l0.6,0.7c0.1,0.1,0.1,0.2,0,0.2c0,0,0,0,0,0
	l-1.3,1.1l1.3,1.1c0.1,0.1,0.1,0.2,0,0.2c0,0,0,0,0,0L5.9,12.5L5.9,12.5z M7.5,14.1l-0.9-0.2c-0.1,0-0.1-0.1-0.1-0.2L8.4,7
	c0-0.1,0.1-0.1,0.2-0.1l0.9,0.2c0.1,0,0.1,0.1,0.1,0.2c0,0,0,0,0,0L7.7,14C7.6,14.1,7.5,14.1,7.5,14.1C7.5,14.1,7.5,14.1,7.5,14.1
	L7.5,14.1z M12.5,10.6l-2,1.9c-0.1,0.1-0.2,0.1-0.2,0c0,0,0,0,0,0l-0.6-0.7c-0.1-0.1-0.1-0.2,0-0.2c0,0,0,0,0,0l1.3-1.1L9.6,9.4
	c-0.1-0.1-0.1-0.2,0-0.2c0,0,0,0,0,0l0.6-0.7c0.1-0.1,0.2-0.1,0.2,0c0,0,0,0,0,0l2,1.9C12.5,10.4,12.5,10.5,12.5,10.6
	C12.5,10.6,12.5,10.6,12.5,10.6L12.5,10.6z"/>
</svg>
