<svg width="16px" height="16px" viewBox="0 0 16 16">>
<path d="M10.9,4.9C10.4,2,9.3,0,8,0S5.6,2,5.1,4.9H10.9z M4.9,8c0,0.7,0,1.4,0.1,2.1h6c0.1-0.7,0.1-1.3,0.1-2.1s0-1.4-0.1-2.1H5
	C4.9,6.6,4.9,7.3,4.9,8z M15.4,4.9c-0.9-2.2-2.8-3.9-5.1-4.6c0.8,1.1,1.3,2.7,1.6,4.6H15.4z M5.7,0.3C3.4,1,1.5,2.7,0.6,4.9h3.5
	C4.4,3.1,4.9,1.4,5.7,0.3L5.7,0.3z M15.7,5.9H12c0.1,0.7,0.1,1.4,0.1,2.1s0,1.4-0.1,2.1h3.7C15.9,9.4,16,8.7,16,8S15.9,6.6,15.7,5.9
	L15.7,5.9z M3.9,8c0-0.7,0-1.4,0.1-2.1H0.3C0.1,6.6,0,7.3,0,8s0.1,1.4,0.3,2.1H4C3.9,9.4,3.9,8.7,3.9,8z M5.1,11.1
	C5.6,14,6.7,16,8,16s2.4-2,2.9-4.9H5.1z M10.3,15.7c2.3-0.7,4.2-2.4,5.1-4.6h-3.5C11.6,12.9,11.1,14.6,10.3,15.7z M0.6,11.1
	c0.9,2.2,2.8,3.9,5.1,4.6c-0.8-1.1-1.3-2.7-1.6-4.6C4.1,11.1,0.6,11.1,0.6,11.1z"/>
</svg>
