<svg width="16px" height="16px" viewBox="0 0 16 16">
<path d="M3.8,7.5C3.7,7.2,3.6,6.7,3.6,6.7h0c0,0-0.1,0.5-0.2,0.8L3.1,8.4h1L3.8,7.5z M15.4,4h-7v8h7c0.3,0,0.6-0.3,0.6-0.6V4.6
	C16,4.3,15.7,4,15.4,4z M14.8,7c0,0.2-0.1,0.3-0.3,0.3h-0.3C14,7.9,13.7,8.5,13.1,9c0.2,0.2,0.4,0.3,0.7,0.4
	c0.1,0.1,0.2,0.3,0.1,0.4l-0.2,0.3c-0.1,0.1-0.3,0.2-0.4,0.1c-0.3-0.2-0.6-0.4-0.9-0.6c-0.3,0.2-0.6,0.4-0.9,0.6
	c-0.1,0.1-0.3,0-0.4-0.1l-0.2-0.3c-0.1-0.1,0-0.3,0.1-0.4c0.2-0.1,0.4-0.3,0.7-0.4c-0.2-0.2-0.4-0.4-0.5-0.6C11,8.3,11.1,8.1,11.2,8
	l0.2-0.1l0.2-0.1c0.1-0.1,0.3,0,0.4,0.1c0.1,0.2,0.3,0.4,0.4,0.5C12.7,8,13,7.7,13.2,7.3h-2.9C10.1,7.3,10,7.2,10,7V6.6
	c0-0.2,0.1-0.3,0.3-0.3h1.6V5.9c0-0.2,0.1-0.3,0.3-0.3h0.4c0.2,0,0.3,0.1,0.3,0.3v0.4h1.6c0.2,0,0.3,0.1,0.3,0.3V7z M0,4.6v6.8
	C0,11.7,0.3,12,0.6,12h7V4h-7C0.3,4,0,4.3,0,4.6z M1.5,10l1.4-4.2c0-0.1,0.2-0.2,0.3-0.2H4c0.1,0,0.2,0.1,0.3,0.2L5.7,10
	c0.1,0.2-0.1,0.4-0.3,0.4H4.9c-0.1,0-0.2-0.1-0.3-0.2L4.4,9.4H2.8l-0.2,0.8c0,0.1-0.2,0.2-0.3,0.2H1.8C1.6,10.4,1.4,10.2,1.5,10z"/>
</svg>
