<svg width="16px" height="16px" viewBox="0 0 16 16">
<path d="M10.2,5.8c1.9,1.9,1.8,4.9,0,6.7c0,0,0,0,0,0l-2.1,2.1c-1.9,1.9-4.9,1.9-6.7,0c-1.9-1.9-1.9-4.9,0-6.7l1.2-1.2
	c0.3-0.3,0.8-0.1,0.9,0.3c0,0.6,0.1,1.1,0.3,1.6c0.1,0.2,0,0.4-0.1,0.5L3.2,9.6c-0.9,0.9-0.9,2.3,0,3.2c0.9,0.9,2.3,0.9,3.2,0
	l2.1-2.1c0.9-0.9,0.9-2.3,0-3.2C8.3,7.4,8.2,7.4,8.1,7.3C8,7.2,7.9,7.1,7.9,6.9C7.9,6.6,8,6.2,8.3,6l0.7-0.7
	c0.2-0.2,0.4-0.2,0.6-0.1C9.8,5.4,10,5.6,10.2,5.8L10.2,5.8z M14.6,1.4c-1.9-1.9-4.9-1.9-6.7,0L5.8,3.5c0,0,0,0,0,0
	c-1.8,1.8-1.9,4.8,0,6.7c0.2,0.2,0.4,0.4,0.6,0.5c0.2,0.1,0.5,0.1,0.6-0.1L7.7,10C8,9.8,8.1,9.4,8.1,9.1c0-0.2-0.1-0.3-0.2-0.4
	C7.8,8.6,7.7,8.6,7.6,8.4c-0.9-0.9-0.9-2.3,0-3.2l2.1-2.1c0.9-0.9,2.3-0.9,3.2,0c0.9,0.9,0.8,2.3,0,3.2l-0.4,0.4
	c-0.1,0.1-0.2,0.3-0.1,0.5c0.2,0.5,0.3,1.1,0.3,1.6c0,0.4,0.5,0.6,0.9,0.3l1.2-1.2C16.5,6.3,16.5,3.2,14.6,1.4L14.6,1.4z"/>
</svg>
