<svg width="16px" height="16px" viewBox="0 0 16 16">
<path class="st0" d="M13.2,1.7l1.6,1.6l0.6-0.6c0.2-0.2,0.2-0.5,0-0.7v0l-0.9-0.9c-0.2-0.2-0.5-0.2-0.7,0L13.2,1.7z"/>
<path d="M15.6,7l-1.9-1.9l-3.5,3.5L8.4,8.8c0,0,0,0-0.1,0c-0.3,0-0.6-0.2-0.6-0.5c0,0,0-0.1,0-0.1L8,6.3l3.5-3.5L9,0.4
	C8.7,0.2,8.3,0,7.9,0H1.5C0.7,0,0,0.7,0,1.5v6.4c0,0.4,0.2,0.8,0.4,1l6.7,6.6c0.6,0.6,1.5,0.6,2.1,0l6.4-6.4
	C16.2,8.5,16.2,7.6,15.6,7z M3.5,5C2.7,5,2,4.3,2,3.5S2.7,2,3.5,2S5,2.7,5,3.5S4.3,5,3.5,5z"/>
<path class="st0" d="M8.4,6.5L8.3,8.2c0,0.1,0.1,0.1,0.1,0.1L10,8.1l4-4l-1.6-1.6L8.4,6.5z"/>
<path class="st1" d="M12.4,2.5L12.4,2.5z"/>
</svg>
