<svg width="16px" height="16px" viewBox="0 0 16 16">
<path class="st0" d="M14.8,13.6L14.8,13.6c-0.1,0-0.3-0.1-0.4-0.1l-1.2-1.2L12,13.4c-0.2,0.2-0.5,0.2-0.7,0L10.9,13
	c-0.1-0.1-0.1-0.2-0.1-0.4s0.1-0.3,0.1-0.4l1.2-1.2l-1.2-1.2c-0.1-0.1-0.1-0.2-0.1-0.4c0-0.1,0.1-0.3,0.1-0.4l0.4-0.4
	c0.2-0.2,0.5-0.2,0.7,0l1.2,1.2l1.2-1.2c0.2-0.2,0.5-0.2,0.7,0l0.4,0.4c0.1,0.1,0.1,0.2,0.1,0.4s-0.1,0.3-0.1,0.4l-1.2,1.2l1.2,1.2
	c0.2,0.2,0.2,0.5,0,0.7l-0.4,0.4C15,13.5,14.9,13.6,14.8,13.6z"/>
<g>
	<path d="M16,7.8v0.5C16,8.1,16,8,16,7.8z"/>
	<path d="M10.2,1.6L9,0.4C8.7,0.2,8.3,0,7.9,0H1.5C0.7,0,0,0.7,0,1.5v6.4c0,0.4,0.2,0.8,0.4,1l6.7,6.6c0.6,0.6,1.5,0.6,2.1,0l1-1
		V1.6z M3.5,5C2.7,5,2,4.3,2,3.5S2.7,2,3.5,2S5,2.7,5,3.5S4.3,5,3.5,5z"/>
</g>
</svg>
