<?xml version="1.0" encoding="utf-8"?>
<!-- Generator: Adobe Illustrator 24.3.0, SVG Export Plug-In . SVG Version: 6.00 Build 0)  -->
<svg version="1.1" id="Layer_1" focusable="false" xmlns="http://www.w3.org/2000/svg" xmlns:xlink="http://www.w3.org/1999/xlink"
	 x="0px" y="0px" viewBox="0 0 16 16" style="enable-background:new 0 0 16 16;" xml:space="preserve">
<path d="M0,7.9V1.5C0,0.7,0.7,0,1.5,0h6.4c0.4,0,0.8,0.2,1.1,0.4l6.6,6.6c0.6,0.6,0.6,1.5,0,2.1l-6.4,6.4c-0.6,0.6-1.5,0.6-2.1,0
	L0.4,8.9C0.2,8.7,0,8.3,0,7.9z M3.5,2C2.7,2,2,2.7,2,3.5S2.7,5,3.5,5S5,4.3,5,3.5S4.3,2,3.5,2z"/>
</svg>
