<svg width="16px" height="16px" viewBox="0 0 16 16">
<path d="M2.4,7.2C3.3,7.2,4,6.5,4,5.6S3.3,4,2.4,4S0.8,4.7,0.8,5.6S1.5,7.2,2.4,7.2z M13.6,7.2c0.9,0,1.6-0.7,1.6-1.6S14.5,4,13.6,4
	S12,4.7,12,5.6S12.7,7.2,13.6,7.2z M14.4,8h-1.6c-0.4,0-0.8,0.2-1.1,0.5c1,0.6,1.7,1.6,1.9,2.7h1.6c0.4,0,0.8-0.4,0.8-0.8V9.6
	C16,8.7,15.3,8,14.4,8z M8,8c1.5,0,2.8-1.3,2.8-2.8S9.5,2.4,8,2.4S5.2,3.7,5.2,5.2S6.5,8,8,8z M9.9,8.8H9.7C9.2,9.1,8.6,9.2,8,9.2
	S6.8,9.1,6.3,8.8H6.1c-1.6,0-2.9,1.3-2.9,2.9v0.7c0,0.7,0.5,1.2,1.2,1.2h7.2c0.7,0,1.2-0.5,1.2-1.2v-0.7C12.8,10.1,11.5,8.8,9.9,8.8
	z M4.3,8.5C4,8.2,3.6,8,3.2,8H1.6C0.7,8,0,8.7,0,9.6v0.8c0,0.4,0.4,0.8,0.8,0.8h1.6C2.6,10,3.3,9,4.3,8.5L4.3,8.5z"/>
</svg>
