<svg id="Layer_1" data-name="Layer 1" xmlns="http://www.w3.org/2000/svg" viewBox="0 0 16 16"><defs><style>.cls-1{fill:#fff;}.cls-2{fill:#777;}</style></defs><path class="cls-1" d="M13.36,5,11,2.64a1.34,1.34,0,0,0-.95-.39H2.56A1.34,1.34,0,0,0,1.21,3.59v9.86a1.34,1.34,0,0,0,1.35,1.34h9.85a1.34,1.34,0,0,0,1.34-1.34V5.94A1.34,1.34,0,0,0,13.36,5ZM3,7.29V4.37A.34.34,0,0,1,3.34,4h6.4a.29.29,0,0,1,.23.1l.1.09a.37.37,0,0,1,.1.24V7.29a.34.34,0,0,1-.34.33H3.34A.34.34,0,0,1,3,7.29Zm4.87,6.29V11.8H4.8V10.61H7.87V8.83l2.85,2.38Z"/><path class="cls-2" d="M12.4,4.05,10.05,1.7a1.34,1.34,0,0,0-1-.39H1.6A1.35,1.35,0,0,0,.25,2.65v9.86A1.35,1.35,0,0,0,1.6,13.85h9.85a1.35,1.35,0,0,0,1.35-1.34V5A1.37,1.37,0,0,0,12.4,4.05ZM2.05,6.35V3.44a.34.34,0,0,1,.33-.34h6.4A.37.37,0,0,1,9,3.2l.09.1a.3.3,0,0,1,.1.23V6.35a.33.33,0,0,1-.33.33H2.38A.33.33,0,0,1,2.05,6.35Zm4.86,6.29V10.86H3.84V9.67H6.91V7.89l2.85,2.38Z"/></svg>